# xmcd
# 
# Track frame offsets:
#     150
#     73760
#     126058
#     190838
# 
# Disc length: 3616
# 
# Revision: 1
# Processed by: cddbd v1.5.2PL0 Copyright (c) Steve Scherf et al.
# Submitted via: BonkEnc v1.0.8
# 
DISCID=340e1e04
DTITLE=Kurt Rosenwinkel - The Remedy - Live At The Village Vanguard [CD1]
DYEAR=2006
DGENRE=Contemporary Jazz
TTITLE0=Chords
TTITLE1=The Remedy
TTITLE2=Flute
TTITLE3=A Life Unfolds
EXTD=YEAR: 2008
EXTT0=
EXTT1=
EXTT2=
EXTT3=
PLAYORDER=
